# xmcd
#
# Track frame offsets:
#	150
#	16506
#	32460
#	43126
#	61411
#	78979
#	93373
#	109057
#	128808
#	143601
#	156929
#	173704
#	191407
#	205798
#	221510
#	238077
#	255568
#	270944
#	285028
#	299966
#	314216
#	326223
#
# Disc length: 4616 seconds
#
# Revision: 0
# Processed by: cddbd v1.5.1PL0 Copyright (c) Steve Scherf et al.
# Submitted via: audiograbber 1.83.01
#
DISCID=39120616
DTITLE=Various Artist - Hot 97 - Request Line Vol. 5
DYEAR=2005
DGENRE=Hip-Hop
TTITLE0=50 Cent - Hustler's Ambition
TTITLE1=Lil' Kim - Whoa Whoa (My Niggas)
TTITLE2=Kanye West (Feat. Maroon 5) - Heard Em Say
TTITLE3=Mariah Carey (Feat. Jay-Z and Young Jeezy) - Shake It Off (Remix)
TTITLE4=Jamie Foxx (Feat. Kanye West) - Extravaganza
TTITLE5=Neo (Feat. Peedi Peedi) - Stay
TTITLE6=Ying Yang Twins (Feat. Mike Jones) - Badd
TTITLE7=Dem Franchise Boyz (Feat Jermaine Dupri) - I Think They Like Me (Remix)
TTITLE8=Alicia Keys - Unbreakable
TTITLE9=R. Kelly - Slow Wind
TTITLE10=Pretty Ricky - Your Body
TTITLE11=Three 6 Mafia (Feat. Young Buck, Eightball and MJG) - Stay Fly
TTITLE12=Lil Wayne (Feat. Trina) - Don't Trip
TTITLE13=T-Pain - I'm Sprung
TTITLE14=Keyshia Cole - I Should Have Cheated
TTITLE15=Ray J - One Wish
TTITLE16=Ciara - And I
TTITLE17=Ginuwine - When We Make Love
TTITLE18=Jamesy and Jabba - Nookie (Remix)
TTITLE19=Richie Spice - Youths Are So Cold
TTITLE20=Tego Calderon and Daddy Yankee - Mirame 2
TTITLE21=Don Omar (Feat. Tego Calderon) - Los Bandoleros
EXTD=
EXTT0=
EXTT1=
EXTT2=
EXTT3=
EXTT4=
EXTT5=
EXTT6=
EXTT7=
EXTT8=
EXTT9=
EXTT10=
EXTT11=
EXTT12=
EXTT13=
EXTT14=
EXTT15=
EXTT16=
EXTT17=
EXTT18=
EXTT19=
EXTT20=
EXTT21=
PLAYORDER=
